<?xml version="1.0" ?><!DOCTYPE svg  PUBLIC '-//W3C//DTD SVG 1.1//EN'  'http://www.w3.org/Graphics/SVG/1.1/DTD/svg11.dtd'><svg enable-background="new 0 0 512 512" height="512px" id="Layer_1" version="1.1" viewBox="0 0 512 512" width="512px" xml:space="preserve" xmlns="http://www.w3.org/2000/svg" xmlns:xlink="http://www.w3.org/1999/xlink"><g><g opacity="0.12"><g><rect fill="none" height="127.054" width="407.444" x="65.86" y="383.946"/><path d="M65.86,447.46c0,35.106,91.2,63.54,203.722,63.54c112.512,0,203.722-28.434,203.722-63.54     c0-35.08-91.21-63.514-203.722-63.514C157.06,383.946,65.86,412.38,65.86,447.46" fill="#231F20"/></g></g><path d="M421.302,380.912c0,0,16.016,18.847,4.715,47.11c-11.305,28.276-73.506,15.09-75.388,0   c0,0-49.95,8.484-36.758-33.925c0,0,5.658-9.416,12.248-13.186H421.302z" fill="#989897"/><path d="M291.259,423.32c0,0,26.379,26.372,0,53.703c-26.386,27.331-92.355,11.309-86.708-11.308   c0,0-70.672,13.199-58.425-32.979s26.51-34.87,26.51-34.87L291.259,423.32z" fill="#989897"/><path d="M414.708,309.281c0,0-7.545,36.748,6.59,71.617c0,0-12.243,32.992-58.421,11.321   c0,0-34.867,9.417-36.755-11.321v-26.45C326.122,354.448,379.842,305.512,414.708,309.281" fill="#F3CBA2"/><path d="M293.141,362.052c0,0-6.597,28.277-1.882,61.269c0,0-44.3,37.681-75.4,0c0,0-46.27,8.983-48.102-26.596   c0,0,17.954-22.419,24.553-53.52L293.141,362.052z" fill="#F3CBA2"/><path d="M421.302,292.325c0,0,25.452,35.803,44.293,0c0,0,40.521,1.879,20.731-28.276   c0,0,30.689-14.132,5.447-30.154c0,0,4.922-35.815-19.583-14.132c0,0,4.716-27.331-17.907-28.277L421.302,292.325z" fill="#4C78B2"/><path d="M230.444,359.229c0,0,19.346,49.947,52.331,5.66c0,0,46.175,39.204,53.72-10.546   c0,0,55.598,18.071,55.598-35.632c0,0,54.656,8.484,43.345-45.245c0,0,50.893-14.119,20.738-55.595c0,0,33.917-29.209-1.889-45.232   c0,0,32.043-44.287-14.135-52.771c0,0,32.981-61.255-41.463-55.595c0,0-9.528-49.001-48.104-25.439   c0,0-11.266-42.415-52.735-12.267c0,0-38.685-55.594-67.405-2.824c0,0-59.817-22.609-49.442,34.87c0,0-68.793-14.132-46.178,55.594   l46.178,213.92C181.002,328.128,187.543,379.021,230.444,359.229" fill="#3C599F"/><path d="M188.541,157.562c0,0,33.917-60.31,94.236-39.578c0,0,15.074,65.031-64.095,81.993   c0,0,66.919,144.188-41.45,160.197c0,0-38.639,60.31-84.817,20.738c0,0-45.232,37.681-71.618-37.707   c-26.392-75.387,1.878-87.627,29.209-133.805c0,0-49.001-14.329-35.815-95.744c0,0,51.838-3.205,75.394,25.059L188.541,157.562z" fill="#F3CBA2"/><path d="M61.315,327.195   c0,0,26.937,39.52,68.938,0" fill="none" stroke="#C8A988" stroke-linecap="round" stroke-miterlimit="10" stroke-width="4.7474"/><path d="M158.379,327.195   c0,0,26.386-1.892,26.386-29.222" fill="none" stroke="#C8A988" stroke-linecap="round" stroke-miterlimit="10" stroke-width="4.7474"/><path d="M89.585,344.755   c0,0-8.103,28.526,2.831,36.144" fill="none" stroke="#C8A988" stroke-linecap="round" stroke-miterlimit="10" stroke-width="4.7474"/><path d="M178.579,316.938   c0,0,12.037,27.475-1.353,43.235" fill="none" stroke="#C8A988" stroke-linecap="round" stroke-miterlimit="10" stroke-width="4.7474"/><path d="M70.739,232.016c0,9.075-4.209,16.443-9.423,16.443c-5.201,0-9.423-7.368-9.423-16.443   c0-9.088,4.223-16.443,9.423-16.443C66.529,215.573,70.739,222.928,70.739,232.016" fill="#434445"/><path d="M167.81,232.016c0,9.075-4.209,16.443-9.423,16.443c-5.201,0-9.43-7.368-9.43-16.443   c0-9.088,4.229-16.443,9.43-16.443C163.6,215.573,167.81,222.928,167.81,232.016" fill="#434445"/><path d="M201.727,192.109c0,0-10.835-64.703,67.851-59.048C269.578,133.061,270.521,182.831,201.727,192.109" fill="#F6B5CE"/><path d="M32.106,136.364c0,0,47.452-14.605,54.596,47.589C86.703,183.954,36.349,202.321,32.106,136.364" fill="#F6B5CE"/><path d="M95.791,113.538c0,0,15.918-39.375,48.903-6.869c0,0,46.67-31.087,45.725,15.557   c0,0,51.011,14.789,6.127,42.415c0,0,15.924,48.056-28.782,31.087c0,0-14.565,37.417-45.193,3.638c0,0-36.419,30.286-35.868-19.182   c0,0-44.72-2.909-11.964-30.424C74.738,149.76,44.971,106.269,95.791,113.538" fill="#4C78B2"/><path d="M325.84,164.404v19.372h35.635l-5.365,34.43h-30.27l0.345,87.693h-35.29v-87.522h-29.062v-34.601h29.062   V158.94c0,0-1.037-45.396,38.058-45.396h32.522v32.177h-21.969C339.506,145.722,325.84,145.025,325.84,164.404z" fill="#FFFFFF"/></g></svg>